<svg width="731" height="543" viewBox="0 0 731 543" fill="none" xmlns="http://www.w3.org/2000/svg">
<path d="M132.139 92L151.467 0.607994H203.819L199.467 20.448H171.691L169.003 34.784H194.859L190.251 54.624H164.267L161.067 71.904H188.843L184.363 92H132.139ZM207.027 92L222.003 21.216H241.587L240.435 32.864H240.947C242.568 29.7067 244.275 27.1893 246.067 25.312C247.859 23.4347 249.907 22.0693 252.211 21.216C254.515 20.3627 257.203 19.936 260.275 19.936C264.883 19.936 268.424 21.0453 270.899 23.264C273.374 25.4827 275.166 28.6827 276.275 32.864H276.787C278.579 29.8773 280.456 27.4453 282.419 25.568C284.467 23.6907 286.686 22.2827 289.075 21.344C291.55 20.4053 294.238 19.936 297.139 19.936C302.6 19.936 306.782 21.6853 309.683 25.184C312.584 28.5973 314.035 33.6747 314.035 40.416C314.035 42.3787 313.864 44.512 313.523 46.816C313.267 49.12 312.926 51.3813 312.499 53.6L304.819 92H280.627L288.563 52.576C288.734 51.7227 288.947 50.5707 289.203 49.12C289.459 47.584 289.587 45.92 289.587 44.128C289.587 42.5067 289.246 41.2693 288.563 40.416C287.88 39.5627 286.984 39.136 285.875 39.136C284.595 39.136 283.4 39.5627 282.291 40.416C281.267 41.184 280.328 42.3787 279.475 44C278.622 45.536 277.854 47.4987 277.171 49.888C276.488 52.192 275.806 54.9227 275.123 58.08L268.083 92H243.891L251.955 52.576C252.126 51.6373 252.339 50.4 252.595 48.864C252.851 47.2427 252.979 45.92 252.979 44.896C252.979 42.848 252.595 41.3973 251.827 40.544C251.059 39.6053 250.163 39.136 249.139 39.136C248.2 39.136 247.262 39.4347 246.323 40.032C245.47 40.544 244.616 41.4827 243.763 42.848C242.995 44.2133 242.184 46.0907 241.331 48.48C240.478 50.8693 239.667 53.8987 238.899 57.568L231.219 92H207.027ZM320.024 122.72L341.528 21.216H361.112L360.344 29.152H360.728C362.008 27.104 363.373 25.3973 364.824 24.032C366.275 22.6667 367.853 21.6427 369.56 20.96C371.352 20.2773 373.272 19.936 375.32 19.936C379.501 19.936 383.043 20.96 385.944 23.008C388.931 24.9707 391.192 27.872 392.728 31.712C394.349 35.4667 395.16 40.0747 395.16 45.536C395.16 50.2293 394.691 54.88 393.752 59.488C392.813 64.096 391.491 68.448 389.784 72.544C388.077 76.5547 385.944 80.1387 383.384 83.296C380.909 86.368 378.093 88.8 374.936 90.592C371.864 92.384 368.451 93.28 364.696 93.28C362.819 93.28 361.069 92.896 359.448 92.128C357.827 91.36 356.333 90.2933 354.968 88.928C353.603 87.5627 352.408 85.984 351.384 84.192H350.872C350.531 87.52 350.104 90.8053 349.592 94.048C349.165 97.376 348.355 101.813 347.16 107.36L344.088 122.72H320.024ZM359.832 73.824C361.027 73.824 362.136 73.3547 363.16 72.416C364.269 71.392 365.251 70.0267 366.104 68.32C366.957 66.6133 367.725 64.6507 368.408 62.432C369.091 60.2133 369.603 57.8667 369.944 55.392C370.285 52.9173 370.456 50.4853 370.456 48.096C370.456 45.28 370.072 43.1467 369.304 41.696C368.536 40.16 367.427 39.392 365.976 39.392C364.952 39.392 363.971 39.776 363.032 40.544C362.179 41.312 361.368 42.3787 360.6 43.744C359.832 45.024 359.107 46.5173 358.424 48.224C357.827 49.9307 357.315 51.7653 356.888 53.728C356.461 55.6053 356.12 57.5253 355.864 59.488C355.608 61.4507 355.48 63.328 355.48 65.12C355.48 67.7653 355.864 69.8987 356.632 71.52C357.4 73.056 358.467 73.824 359.832 73.824ZM436.773 93.28C431.226 93.28 426.533 92.256 422.693 90.208C418.853 88.0747 415.952 85.0027 413.989 80.992C412.026 76.9813 411.045 72.1173 411.045 66.4C411.045 61.536 411.557 56.8427 412.581 52.32C413.69 47.7973 415.312 43.5733 417.445 39.648C419.578 35.7227 422.181 32.3093 425.253 29.408C428.41 26.4213 432.037 24.1173 436.133 22.496C440.314 20.7893 444.965 19.936 450.085 19.936C455.632 19.936 460.325 21.0027 464.165 23.136C468.005 25.184 470.906 28.2133 472.869 32.224C474.917 36.2347 475.941 41.0987 475.941 46.816C475.941 51.68 475.386 56.416 474.277 61.024C473.168 65.5467 471.546 69.7707 469.413 73.696C467.28 77.6213 464.634 81.0347 461.477 83.936C458.32 86.8373 454.65 89.1413 450.469 90.848C446.373 92.4693 441.808 93.28 436.773 93.28ZM439.845 75.104C441.04 75.104 442.192 74.5493 443.301 73.44C444.496 72.3307 445.562 70.8373 446.501 68.96C447.44 66.9973 448.25 64.7787 448.933 62.304C449.616 59.8293 450.128 57.2267 450.469 54.496C450.896 51.68 451.109 48.9067 451.109 46.176C451.109 44.384 450.896 42.8907 450.469 41.696C450.128 40.5013 449.658 39.6053 449.061 39.008C448.464 38.4107 447.738 38.112 446.885 38.112C445.69 38.112 444.538 38.6667 443.429 39.776C442.405 40.8853 441.424 42.4213 440.485 44.384C439.546 46.2613 438.736 48.4373 438.053 50.912C437.37 53.3867 436.816 56.032 436.389 58.848C436.048 61.5787 435.877 64.3093 435.877 67.04C435.877 69.6853 436.218 71.6907 436.901 73.056C437.584 74.4213 438.565 75.104 439.845 75.104ZM494.306 92L490.978 21.216H513.762L513.378 55.776C513.378 58.08 513.25 60.4267 512.994 62.816C512.823 65.2053 512.653 67.3813 512.482 69.344H512.994C513.25 67.9787 513.506 66.6133 513.762 65.248C514.103 63.7973 514.445 62.432 514.786 61.152C515.127 59.7867 515.511 58.5067 515.938 57.312L528.994 21.216H554.338L551.906 56.032C551.821 57.312 551.693 59.1467 551.522 61.536C551.437 63.9253 551.223 66.528 550.882 69.344H551.266C551.778 67.6373 552.205 66.0587 552.546 64.608C552.973 63.072 553.399 61.5787 553.826 60.128C554.253 58.6773 554.765 57.184 555.362 55.648L569.186 21.216H593.25L560.482 92H534.114L535.522 63.968C535.693 61.7493 535.863 59.2747 536.034 56.544C536.205 53.8133 536.418 51.0827 536.674 48.352C536.93 45.536 537.186 43.0187 537.442 40.8H536.93C536.418 43.104 535.735 45.5787 534.882 48.224C534.114 50.784 533.303 53.2587 532.45 55.648C531.682 57.952 530.999 59.9573 530.402 61.664L519.65 92H494.306ZM623.463 93.28C617.746 93.28 612.924 92.1707 608.999 89.952C605.074 87.7333 602.087 84.576 600.039 80.48C598.076 76.2987 597.095 71.3493 597.095 65.632C597.095 59.8293 597.863 54.1973 599.399 48.736C601.02 43.2747 603.452 38.4107 606.695 34.144C609.938 29.792 614.034 26.336 618.983 23.776C623.932 21.216 629.778 19.936 636.519 19.936C644.028 19.936 649.959 21.728 654.311 25.312C658.748 28.8107 660.967 33.504 660.967 39.392C660.967 43.3173 660.242 46.9013 658.791 50.144C657.426 53.3867 655.292 56.16 652.391 58.464C649.49 60.768 645.778 62.56 641.255 63.84C636.732 65.0347 631.314 65.632 624.999 65.632H621.415C621.415 65.8027 621.415 65.9733 621.415 66.144C621.415 66.3147 621.415 66.4853 621.415 66.656C621.415 69.8133 622.14 72.16 623.591 73.696C625.127 75.1467 627.431 75.872 630.503 75.872C633.916 75.872 637.159 75.3173 640.231 74.208C643.388 73.0987 646.674 71.6053 650.087 69.728L649.831 86.88C646.162 88.7573 642.364 90.2933 638.439 91.488C634.599 92.6827 629.607 93.28 623.463 93.28ZM625.383 50.528C628.626 50.528 631.143 50.0587 632.935 49.12C634.812 48.096 636.135 46.8587 636.903 45.408C637.671 43.872 638.055 42.3787 638.055 40.928C638.055 39.648 637.671 38.5813 636.903 37.728C636.22 36.7893 635.068 36.32 633.447 36.32C631.74 36.32 630.204 37.0453 628.839 38.496C627.474 39.9467 626.364 41.7813 625.511 44C624.743 46.1333 624.231 48.3093 623.975 50.528H625.383ZM670.527 92L685.503 21.216H705.087L703.807 32.992H704.319C706.282 29.664 708.202 27.0613 710.079 25.184C712.042 23.2213 714.175 21.856 716.479 21.088C718.783 20.32 721.471 19.936 724.543 19.936C725.396 19.936 726.25 19.9787 727.103 20.064C728.042 20.1493 728.682 20.2773 729.023 20.448L723.519 44.384C722.666 43.9573 721.556 43.616 720.191 43.36C718.826 43.104 717.418 42.976 715.967 42.976C714.26 42.976 712.682 43.2747 711.231 43.872C709.78 44.4693 708.458 45.4507 707.263 46.816C706.068 48.1813 704.959 50.016 703.935 52.32C702.996 54.624 702.143 57.4827 701.375 60.896L694.719 92H670.527ZM52.339 232L71.667 140.608H96.115L89.203 174.528H108.147L115.059 140.608H139.507L120.179 232H95.731L103.411 194.752H84.595L76.787 232H52.339ZM168.389 233.28C164.976 233.28 161.818 232.469 158.917 230.848C156.016 229.141 153.712 226.368 152.005 222.528C150.298 218.603 149.445 213.397 149.445 206.912C149.445 203.413 149.829 199.573 150.597 195.392C151.365 191.211 152.517 187.029 154.053 182.848C155.589 178.667 157.552 174.869 159.941 171.456C162.33 167.957 165.146 165.184 168.389 163.136C171.717 161.003 175.472 159.936 179.653 159.936C182.128 159.936 184.304 160.363 186.181 161.216C188.058 161.984 189.68 163.136 191.045 164.672C192.496 166.123 193.776 167.872 194.885 169.92H195.397L198.597 161.216H218.053L203.077 232H183.493L184.133 224.32H183.621C182.512 226.027 181.274 227.563 179.909 228.928C178.544 230.293 176.922 231.36 175.045 232.128C173.168 232.896 170.949 233.28 168.389 233.28ZM178.629 213.824C180.25 213.824 181.701 213.013 182.981 211.392C184.261 209.685 185.37 207.509 186.309 204.864C187.333 202.133 188.101 199.232 188.613 196.16C188.869 194.709 189.04 193.344 189.125 192.064C189.21 190.699 189.253 189.376 189.253 188.096C189.253 185.451 188.954 183.36 188.357 181.824C187.76 180.203 186.736 179.392 185.285 179.392C184.176 179.392 183.066 179.904 181.957 180.928C180.848 181.867 179.824 183.189 178.885 184.896C177.946 186.603 177.093 188.565 176.325 190.784C175.642 193.003 175.088 195.349 174.661 197.824C174.32 200.213 174.149 202.645 174.149 205.12C174.149 207.936 174.533 210.112 175.301 211.648C176.069 213.099 177.178 213.824 178.629 213.824ZM219.474 262.72L240.978 161.216H260.562L259.794 169.152H260.178C261.458 167.104 262.823 165.397 264.274 164.032C265.725 162.667 267.303 161.643 269.01 160.96C270.802 160.277 272.722 159.936 274.77 159.936C278.951 159.936 282.493 160.96 285.394 163.008C288.381 164.971 290.642 167.872 292.178 171.712C293.799 175.467 294.61 180.075 294.61 185.536C294.61 190.229 294.141 194.88 293.202 199.488C292.263 204.096 290.941 208.448 289.234 212.544C287.527 216.555 285.394 220.139 282.834 223.296C280.359 226.368 277.543 228.8 274.386 230.592C271.314 232.384 267.901 233.28 264.146 233.28C262.269 233.28 260.519 232.896 258.898 232.128C257.277 231.36 255.783 230.293 254.418 228.928C253.053 227.563 251.858 225.984 250.834 224.192H250.322C249.981 227.52 249.554 230.805 249.042 234.048C248.615 237.376 247.805 241.813 246.61 247.36L243.538 262.72H219.474ZM259.282 213.824C260.477 213.824 261.586 213.355 262.61 212.416C263.719 211.392 264.701 210.027 265.554 208.32C266.407 206.613 267.175 204.651 267.858 202.432C268.541 200.213 269.053 197.867 269.394 195.392C269.735 192.917 269.906 190.485 269.906 188.096C269.906 185.28 269.522 183.147 268.754 181.696C267.986 180.16 266.877 179.392 265.426 179.392C264.402 179.392 263.421 179.776 262.482 180.544C261.629 181.312 260.818 182.379 260.05 183.744C259.282 185.024 258.557 186.517 257.874 188.224C257.277 189.931 256.765 191.765 256.338 193.728C255.911 195.605 255.57 197.525 255.314 199.488C255.058 201.451 254.93 203.328 254.93 205.12C254.93 207.765 255.314 209.899 256.082 211.52C256.85 213.056 257.917 213.824 259.282 213.824ZM299.999 262.72L321.503 161.216H341.087L340.319 169.152H340.703C341.983 167.104 343.348 165.397 344.799 164.032C346.25 162.667 347.828 161.643 349.535 160.96C351.327 160.277 353.247 159.936 355.295 159.936C359.476 159.936 363.018 160.96 365.919 163.008C368.906 164.971 371.167 167.872 372.703 171.712C374.324 175.467 375.135 180.075 375.135 185.536C375.135 190.229 374.666 194.88 373.727 199.488C372.788 204.096 371.466 208.448 369.759 212.544C368.052 216.555 365.919 220.139 363.359 223.296C360.884 226.368 358.068 228.8 354.911 230.592C351.839 232.384 348.426 233.28 344.671 233.28C342.794 233.28 341.044 232.896 339.423 232.128C337.802 231.36 336.308 230.293 334.943 228.928C333.578 227.563 332.383 225.984 331.359 224.192H330.847C330.506 227.52 330.079 230.805 329.567 234.048C329.14 237.376 328.33 241.813 327.135 247.36L324.063 262.72H299.999ZM339.807 213.824C341.002 213.824 342.111 213.355 343.135 212.416C344.244 211.392 345.226 210.027 346.079 208.32C346.932 206.613 347.7 204.651 348.383 202.432C349.066 200.213 349.578 197.867 349.919 195.392C350.26 192.917 350.431 190.485 350.431 188.096C350.431 185.28 350.047 183.147 349.279 181.696C348.511 180.16 347.402 179.392 345.951 179.392C344.927 179.392 343.946 179.776 343.007 180.544C342.154 181.312 341.343 182.379 340.575 183.744C339.807 185.024 339.082 186.517 338.399 188.224C337.802 189.931 337.29 191.765 336.863 193.728C336.436 195.605 336.095 197.525 335.839 199.488C335.583 201.451 335.455 203.328 335.455 205.12C335.455 207.765 335.839 209.899 336.607 211.52C337.375 213.056 338.442 213.824 339.807 213.824ZM387.052 232L402.028 161.216H426.476L411.244 232H387.052ZM416.748 154.432C413.42 154.432 410.604 153.792 408.3 152.512C406.081 151.147 404.972 148.885 404.972 145.728C404.972 142.827 405.527 140.437 406.636 138.56C407.831 136.597 409.495 135.104 411.628 134.08C413.761 133.056 416.279 132.544 419.18 132.544C422.337 132.544 425.068 133.184 427.372 134.464C429.761 135.744 430.956 138.005 430.956 141.248C430.956 145.173 429.804 148.373 427.5 150.848C425.196 153.237 421.612 154.432 416.748 154.432ZM433.827 232L448.803 161.216H468.387L467.619 171.072H468.131C469.582 168.427 471.16 166.293 472.867 164.672C474.574 163.051 476.494 161.856 478.627 161.088C480.846 160.32 483.363 159.936 486.179 159.936C490.36 159.936 493.731 160.875 496.291 162.752C498.936 164.544 500.856 166.933 502.051 169.92C503.246 172.907 503.843 176.192 503.843 179.776C503.843 182.165 503.672 184.64 503.331 187.2C503.075 189.675 502.691 192.064 502.179 194.368L494.371 232H470.179L478.115 193.344C478.371 192.235 478.627 190.827 478.883 189.12C479.139 187.413 479.267 185.835 479.267 184.384C479.267 182.677 478.84 181.397 477.987 180.544C477.134 179.605 476.238 179.136 475.299 179.136C474.104 179.136 472.91 179.819 471.715 181.184C470.606 182.464 469.496 184.469 468.387 187.2C467.363 189.845 466.382 193.259 465.443 197.44L458.019 232H433.827ZM546.688 233.28C540.971 233.28 536.149 232.171 532.224 229.952C528.299 227.733 525.312 224.576 523.264 220.48C521.301 216.299 520.32 211.349 520.32 205.632C520.32 199.829 521.088 194.197 522.624 188.736C524.245 183.275 526.677 178.411 529.92 174.144C533.163 169.792 537.259 166.336 542.208 163.776C547.157 161.216 553.003 159.936 559.744 159.936C567.253 159.936 573.184 161.728 577.536 165.312C581.973 168.811 584.192 173.504 584.192 179.392C584.192 183.317 583.467 186.901 582.016 190.144C580.651 193.387 578.517 196.16 575.616 198.464C572.715 200.768 569.003 202.56 564.48 203.84C559.957 205.035 554.539 205.632 548.224 205.632H544.64C544.64 205.803 544.64 205.973 544.64 206.144C544.64 206.315 544.64 206.485 544.64 206.656C544.64 209.813 545.365 212.16 546.816 213.696C548.352 215.147 550.656 215.872 553.728 215.872C557.141 215.872 560.384 215.317 563.456 214.208C566.613 213.099 569.899 211.605 573.312 209.728L573.056 226.88C569.387 228.757 565.589 230.293 561.664 231.488C557.824 232.683 552.832 233.28 546.688 233.28ZM548.608 190.528C551.851 190.528 554.368 190.059 556.16 189.12C558.037 188.096 559.36 186.859 560.128 185.408C560.896 183.872 561.28 182.379 561.28 180.928C561.28 179.648 560.896 178.581 560.128 177.728C559.445 176.789 558.293 176.32 556.672 176.32C554.965 176.32 553.429 177.045 552.064 178.496C550.699 179.947 549.589 181.781 548.736 184C547.968 186.133 547.456 188.309 547.2 190.528H548.608ZM615.896 233.28C611.373 233.28 607.32 232.939 603.736 232.256C600.152 231.573 597.08 230.592 594.52 229.312L594.776 209.856C598.531 211.989 601.944 213.483 605.016 214.336C608.173 215.104 611.331 215.488 614.488 215.488C615.256 215.488 616.195 215.403 617.304 215.232C618.499 214.976 619.565 214.549 620.504 213.952C621.443 213.269 621.912 212.288 621.912 211.008C621.912 210.069 621.699 209.216 621.272 208.448C620.931 207.68 620.12 206.827 618.84 205.888C617.645 204.864 615.725 203.584 613.08 202.048C610.349 200.427 608.088 198.677 606.296 196.8C604.589 194.923 603.309 192.832 602.456 190.528C601.688 188.139 601.304 185.493 601.304 182.592C601.304 178.069 602.285 174.144 604.248 170.816C606.296 167.403 609.411 164.757 613.592 162.88C617.773 160.917 623.149 159.936 629.72 159.936C634.243 159.936 638.339 160.491 642.008 161.6C645.763 162.709 649.347 164.373 652.76 166.592L645.08 182.336C642.861 180.8 640.301 179.435 637.4 178.24C634.499 177.045 631.939 176.448 629.72 176.448C628.44 176.448 627.501 176.789 626.904 177.472C626.307 178.155 626.008 179.221 626.008 180.672C626.008 181.44 626.264 182.165 626.776 182.848C627.288 183.531 628.099 184.256 629.208 185.024C630.317 185.707 631.768 186.517 633.56 187.456C636.632 188.992 639.107 190.741 640.984 192.704C642.947 194.667 644.355 196.843 645.208 199.232C646.147 201.621 646.616 204.267 646.616 207.168C646.616 213.056 645.336 217.92 642.776 221.76C640.301 225.6 636.76 228.501 632.152 230.464C627.544 232.341 622.125 233.28 615.896 233.28ZM684.296 233.28C679.773 233.28 675.72 232.939 672.136 232.256C668.552 231.573 665.48 230.592 662.92 229.312L663.176 209.856C666.931 211.989 670.344 213.483 673.416 214.336C676.573 215.104 679.731 215.488 682.888 215.488C683.656 215.488 684.595 215.403 685.704 215.232C686.899 214.976 687.965 214.549 688.904 213.952C689.843 213.269 690.312 212.288 690.312 211.008C690.312 210.069 690.099 209.216 689.672 208.448C689.331 207.68 688.52 206.827 687.24 205.888C686.045 204.864 684.125 203.584 681.48 202.048C678.749 200.427 676.488 198.677 674.696 196.8C672.989 194.923 671.709 192.832 670.856 190.528C670.088 188.139 669.704 185.493 669.704 182.592C669.704 178.069 670.685 174.144 672.648 170.816C674.696 167.403 677.811 164.757 681.992 162.88C686.173 160.917 691.549 159.936 698.12 159.936C702.643 159.936 706.739 160.491 710.408 161.6C714.163 162.709 717.747 164.373 721.16 166.592L713.48 182.336C711.261 180.8 708.701 179.435 705.8 178.24C702.899 177.045 700.339 176.448 698.12 176.448C696.84 176.448 695.901 176.789 695.304 177.472C694.707 178.155 694.408 179.221 694.408 180.672C694.408 181.44 694.664 182.165 695.176 182.848C695.688 183.531 696.499 184.256 697.608 185.024C698.717 185.707 700.168 186.517 701.96 187.456C705.032 188.992 707.507 190.741 709.384 192.704C711.347 194.667 712.755 196.843 713.608 199.232C714.547 201.621 715.016 204.267 715.016 207.168C715.016 213.056 713.736 217.92 711.176 221.76C708.701 225.6 705.16 228.501 700.552 230.464C695.944 232.341 690.525 233.28 684.296 233.28ZM223.542 373.28C217.654 373.28 213.217 372 210.23 369.44C207.243 366.795 205.75 362.485 205.75 356.512C205.75 354.72 205.963 352.715 206.39 350.496C206.817 348.277 207.201 346.272 207.542 344.48L212.406 319.392H203.19L205.878 307.488L219.19 301.984L227.51 287.008H243.766L240.694 301.216H257.974L253.75 319.392H236.598L231.734 343.328C231.478 344.523 231.222 345.76 230.966 347.04C230.71 348.235 230.582 349.216 230.582 349.984C230.582 351.349 230.881 352.331 231.478 352.928C232.161 353.525 232.971 353.824 233.91 353.824C235.361 353.824 237.067 353.568 239.03 353.056C241.078 352.459 243.083 351.733 245.046 350.88L244.918 369.056C242.273 370.336 239.201 371.36 235.702 372.128C232.289 372.896 228.235 373.28 223.542 373.28ZM263.902 372L284.51 274.72H308.702L305.502 290.336C305.161 291.872 304.777 293.451 304.35 295.072C304.009 296.608 303.625 298.187 303.198 299.808C302.771 301.344 302.259 302.837 301.662 304.288C301.065 305.653 300.51 306.891 299.998 308H300.51C301.875 306.123 303.369 304.587 304.99 303.392C306.611 302.197 308.361 301.344 310.238 300.832C312.115 300.235 314.121 299.936 316.254 299.936C320.435 299.936 323.806 300.875 326.366 302.752C329.011 304.544 330.931 306.933 332.126 309.92C333.321 312.907 333.918 316.192 333.918 319.776C333.918 322.165 333.747 324.64 333.406 327.2C333.15 329.675 332.766 332.064 332.254 334.368L324.446 372H300.254L308.19 333.344C308.446 332.235 308.702 330.827 308.958 329.12C309.214 327.413 309.342 325.835 309.342 324.384C309.342 322.677 308.915 321.397 308.062 320.544C307.209 319.605 306.313 319.136 305.374 319.136C304.179 319.136 302.985 319.776 301.79 321.056C300.681 322.251 299.571 324.213 298.462 326.944C297.438 329.589 296.457 333.088 295.518 337.44L288.094 372H263.902ZM346.427 372L361.403 301.216H380.987L379.707 312.992H380.219C382.182 309.664 384.102 307.061 385.979 305.184C387.942 303.221 390.075 301.856 392.379 301.088C394.683 300.32 397.371 299.936 400.443 299.936C401.296 299.936 402.15 299.979 403.003 300.064C403.942 300.149 404.582 300.277 404.923 300.448L399.419 324.384C398.566 323.957 397.456 323.616 396.091 323.36C394.726 323.104 393.318 322.976 391.867 322.976C390.16 322.976 388.582 323.275 387.131 323.872C385.68 324.469 384.358 325.451 383.163 326.816C381.968 328.181 380.859 330.016 379.835 332.32C378.896 334.624 378.043 337.483 377.275 340.896L370.619 372H346.427ZM433.773 373.28C428.226 373.28 423.533 372.256 419.693 370.208C415.853 368.075 412.952 365.003 410.989 360.992C409.026 356.981 408.045 352.117 408.045 346.4C408.045 341.536 408.557 336.843 409.581 332.32C410.69 327.797 412.312 323.573 414.445 319.648C416.578 315.723 419.181 312.309 422.253 309.408C425.41 306.421 429.037 304.117 433.133 302.496C437.314 300.789 441.965 299.936 447.085 299.936C452.632 299.936 457.325 301.003 461.165 303.136C465.005 305.184 467.906 308.213 469.869 312.224C471.917 316.235 472.941 321.099 472.941 326.816C472.941 331.68 472.386 336.416 471.277 341.024C470.168 345.547 468.546 349.771 466.413 353.696C464.28 357.621 461.634 361.035 458.477 363.936C455.32 366.837 451.65 369.141 447.469 370.848C443.373 372.469 438.808 373.28 433.773 373.28ZM436.845 355.104C438.04 355.104 439.192 354.549 440.301 353.44C441.496 352.331 442.562 350.837 443.501 348.96C444.44 346.997 445.25 344.779 445.933 342.304C446.616 339.829 447.128 337.227 447.469 334.496C447.896 331.68 448.109 328.907 448.109 326.176C448.109 324.384 447.896 322.891 447.469 321.696C447.128 320.501 446.658 319.605 446.061 319.008C445.464 318.411 444.738 318.112 443.885 318.112C442.69 318.112 441.538 318.667 440.429 319.776C439.405 320.885 438.424 322.421 437.485 324.384C436.546 326.261 435.736 328.437 435.053 330.912C434.37 333.387 433.816 336.032 433.389 338.848C433.048 341.579 432.877 344.309 432.877 347.04C432.877 349.685 433.218 351.691 433.901 353.056C434.584 354.421 435.565 355.104 436.845 355.104ZM507.377 373.28C503.196 373.28 499.782 372.384 497.137 370.592C494.492 368.715 492.572 366.283 491.377 363.296C490.182 360.309 489.585 357.024 489.585 353.44C489.585 351.051 489.713 348.619 489.969 346.144C490.31 343.584 490.694 341.152 491.121 338.848L499.057 301.216H523.249L515.313 339.744C515.142 340.853 514.886 342.261 514.545 343.968C514.289 345.675 514.161 347.253 514.161 348.704C514.161 350.411 514.588 351.733 515.441 352.672C516.294 353.525 517.19 353.952 518.129 353.952C519.153 353.952 520.22 353.312 521.329 352.032C522.524 350.752 523.676 348.747 524.785 346.016C525.98 343.285 527.004 339.829 527.857 335.648L535.281 301.216H559.601L544.625 372H525.169L525.809 362.144H525.425C523.974 364.789 522.353 366.923 520.561 368.544C518.854 370.165 516.934 371.36 514.801 372.128C512.668 372.896 510.193 373.28 507.377 373.28ZM589.262 402.72C584.313 402.72 580.174 402.336 576.846 401.568C573.518 400.8 570.446 399.861 567.63 398.752L567.886 378.912C569.934 380.021 572.067 380.96 574.286 381.728C576.505 382.581 578.851 383.221 581.326 383.648C583.801 384.075 586.318 384.288 588.878 384.288C592.547 384.288 595.406 383.349 597.454 381.472C599.502 379.595 600.867 377.205 601.55 374.304L602.19 371.488C602.361 370.805 602.489 370.123 602.574 369.44C602.659 368.672 602.745 367.947 602.83 367.264C603.001 366.496 603.214 365.771 603.47 365.088H603.086C602.147 366.453 601.038 367.733 599.758 368.928C598.563 370.037 597.07 370.933 595.278 371.616C593.571 372.299 591.481 372.64 589.006 372.64C585.678 372.64 582.691 371.829 580.046 370.208C577.401 368.587 575.31 365.899 573.774 362.144C572.238 358.389 571.47 353.397 571.47 347.168C571.47 343.669 571.811 339.829 572.494 335.648C573.262 331.381 574.414 327.157 575.95 322.976C577.486 318.795 579.449 314.955 581.838 311.456C584.227 307.957 587.043 305.184 590.286 303.136C593.614 301.003 597.411 299.936 601.678 299.936C604.153 299.936 606.243 300.277 607.95 300.96C609.742 301.643 611.321 302.709 612.686 304.16C614.051 305.611 615.459 307.531 616.91 309.92H617.422L620.622 301.216H640.078L624.718 373.664C623.182 380.917 620.665 386.677 617.166 390.944C613.667 395.211 609.486 398.24 604.622 400.032C599.843 401.824 594.723 402.72 589.262 402.72ZM600.526 353.824C601.635 353.824 602.659 353.44 603.598 352.672C604.537 351.904 605.39 350.837 606.158 349.472C607.011 348.107 607.737 346.571 608.334 344.864C609.017 343.072 609.571 341.237 609.998 339.36C610.425 337.397 610.766 335.435 611.022 333.472C611.278 331.509 611.406 329.675 611.406 327.968C611.406 325.408 611.107 323.36 610.51 321.824C609.998 320.203 609.017 319.392 607.566 319.392C606.457 319.392 605.347 319.904 604.238 320.928C603.129 321.867 602.062 323.189 601.038 324.896C600.099 326.603 599.289 328.565 598.606 330.784C597.923 333.003 597.369 335.349 596.942 337.824C596.515 340.213 596.302 342.645 596.302 345.12C596.302 347.936 596.643 350.112 597.326 351.648C598.009 353.099 599.075 353.824 600.526 353.824ZM648.027 372L668.635 274.72H692.827L689.627 290.336C689.286 291.872 688.902 293.451 688.475 295.072C688.134 296.608 687.75 298.187 687.323 299.808C686.896 301.344 686.384 302.837 685.787 304.288C685.19 305.653 684.635 306.891 684.123 308H684.635C686 306.123 687.494 304.587 689.115 303.392C690.736 302.197 692.486 301.344 694.363 300.832C696.24 300.235 698.246 299.936 700.379 299.936C704.56 299.936 707.931 300.875 710.491 302.752C713.136 304.544 715.056 306.933 716.251 309.92C717.446 312.907 718.043 316.192 718.043 319.776C718.043 322.165 717.872 324.64 717.531 327.2C717.275 329.675 716.891 332.064 716.379 334.368L708.571 372H684.379L692.315 333.344C692.571 332.235 692.827 330.827 693.083 329.12C693.339 327.413 693.467 325.835 693.467 324.384C693.467 322.677 693.04 321.397 692.187 320.544C691.334 319.605 690.438 319.136 689.499 319.136C688.304 319.136 687.11 319.776 685.915 321.056C684.806 322.251 683.696 324.213 682.587 326.944C681.563 329.589 680.582 333.088 679.643 337.44L672.219 372H648.027ZM4.09303 512L18.685 440.832H0.381025L4.98903 420.608H66.301L61.565 440.832H43.133L28.541 512H4.09303ZM87.663 513.28C81.9457 513.28 77.1244 512.171 73.199 509.952C69.2737 507.733 66.287 504.576 64.239 500.48C62.2764 496.299 61.295 491.349 61.295 485.632C61.295 479.829 62.063 474.197 63.599 468.736C65.2204 463.275 67.6524 458.411 70.895 454.144C74.1377 449.792 78.2337 446.336 83.183 443.776C88.1324 441.216 93.9777 439.936 100.719 439.936C108.228 439.936 114.159 441.728 118.511 445.312C122.948 448.811 125.167 453.504 125.167 459.392C125.167 463.317 124.442 466.901 122.991 470.144C121.626 473.387 119.492 476.16 116.591 478.464C113.69 480.768 109.978 482.56 105.455 483.84C100.932 485.035 95.5137 485.632 89.199 485.632H85.615C85.615 485.803 85.615 485.973 85.615 486.144C85.615 486.315 85.615 486.485 85.615 486.656C85.615 489.813 86.3404 492.16 87.791 493.696C89.327 495.147 91.631 495.872 94.703 495.872C98.1164 495.872 101.359 495.317 104.431 494.208C107.588 493.099 110.874 491.605 114.287 489.728L114.031 506.88C110.362 508.757 106.564 510.293 102.639 511.488C98.799 512.683 93.807 513.28 87.663 513.28ZM89.583 470.528C92.8257 470.528 95.343 470.059 97.135 469.12C99.0124 468.096 100.335 466.859 101.103 465.408C101.871 463.872 102.255 462.379 102.255 460.928C102.255 459.648 101.871 458.581 101.103 457.728C100.42 456.789 99.2684 456.32 97.647 456.32C95.9404 456.32 94.4044 457.045 93.039 458.496C91.6737 459.947 90.5644 461.781 89.711 464C88.943 466.133 88.431 468.309 88.175 470.528H89.583ZM163.655 513.28C159.218 513.28 155.079 512.341 151.239 510.464C147.484 508.501 144.455 505.429 142.151 501.248C139.932 497.067 138.823 491.605 138.823 484.864C138.823 479.829 139.378 475.051 140.487 470.528C141.596 466.005 143.218 461.909 145.351 458.24C147.484 454.485 150.044 451.243 153.031 448.512C156.103 445.781 159.516 443.691 163.271 442.24C167.026 440.704 171.122 439.936 175.559 439.936C179.314 439.936 182.94 440.363 186.439 441.216C189.938 441.984 193.436 443.221 196.935 444.928L189.127 462.848C187.164 461.909 185.074 461.056 182.855 460.288C180.722 459.52 178.588 459.136 176.455 459.136C174.663 459.136 173.042 459.691 171.591 460.8C170.14 461.824 168.86 463.232 167.751 465.024C166.727 466.731 165.874 468.651 165.191 470.784C164.508 472.832 163.996 474.965 163.655 477.184C163.314 479.317 163.143 481.323 163.143 483.2C163.143 485.845 163.399 487.979 163.911 489.6C164.508 491.136 165.276 492.245 166.215 492.928C167.239 493.525 168.434 493.824 169.799 493.824C172.615 493.824 175.388 493.355 178.119 492.416C180.85 491.392 183.708 490.069 186.695 488.448L186.567 507.648C183.324 509.44 179.868 510.848 176.199 511.872C172.615 512.811 168.434 513.28 163.655 513.28ZM203.127 512L223.735 414.72H247.927L244.727 430.336C244.386 431.872 244.002 433.451 243.575 435.072C243.234 436.608 242.85 438.187 242.423 439.808C241.996 441.344 241.484 442.837 240.887 444.288C240.29 445.653 239.735 446.891 239.223 448H239.735C241.1 446.123 242.594 444.587 244.215 443.392C245.836 442.197 247.586 441.344 249.463 440.832C251.34 440.235 253.346 439.936 255.479 439.936C259.66 439.936 263.031 440.875 265.591 442.752C268.236 444.544 270.156 446.933 271.351 449.92C272.546 452.907 273.143 456.192 273.143 459.776C273.143 462.165 272.972 464.64 272.631 467.2C272.375 469.675 271.991 472.064 271.479 474.368L263.671 512H239.479L247.415 473.344C247.671 472.235 247.927 470.827 248.183 469.12C248.439 467.413 248.567 465.835 248.567 464.384C248.567 462.677 248.14 461.397 247.287 460.544C246.434 459.605 245.538 459.136 244.599 459.136C243.404 459.136 242.21 459.776 241.015 461.056C239.906 462.251 238.796 464.213 237.687 466.944C236.663 469.589 235.682 473.088 234.743 477.44L227.319 512H203.127ZM285.652 512L300.628 441.216H320.212L319.444 451.072H319.956C321.407 448.427 322.985 446.293 324.692 444.672C326.399 443.051 328.319 441.856 330.452 441.088C332.671 440.32 335.188 439.936 338.004 439.936C342.185 439.936 345.556 440.875 348.116 442.752C350.761 444.544 352.681 446.933 353.876 449.92C355.071 452.907 355.668 456.192 355.668 459.776C355.668 462.165 355.497 464.64 355.156 467.2C354.9 469.675 354.516 472.064 354.004 474.368L346.196 512H322.004L329.94 473.344C330.196 472.235 330.452 470.827 330.708 469.12C330.964 467.413 331.092 465.835 331.092 464.384C331.092 462.677 330.665 461.397 329.812 460.544C328.959 459.605 328.063 459.136 327.124 459.136C325.929 459.136 324.735 459.819 323.54 461.184C322.431 462.464 321.321 464.469 320.212 467.2C319.188 469.845 318.207 473.259 317.268 477.44L309.844 512H285.652ZM397.873 513.28C392.326 513.28 387.633 512.256 383.793 510.208C379.953 508.075 377.052 505.003 375.089 500.992C373.126 496.981 372.145 492.117 372.145 486.4C372.145 481.536 372.657 476.843 373.681 472.32C374.79 467.797 376.412 463.573 378.545 459.648C380.678 455.723 383.281 452.309 386.353 449.408C389.51 446.421 393.137 444.117 397.233 442.496C401.414 440.789 406.065 439.936 411.185 439.936C416.732 439.936 421.425 441.003 425.265 443.136C429.105 445.184 432.006 448.213 433.969 452.224C436.017 456.235 437.041 461.099 437.041 466.816C437.041 471.68 436.486 476.416 435.377 481.024C434.268 485.547 432.646 489.771 430.513 493.696C428.38 497.621 425.734 501.035 422.577 503.936C419.42 506.837 415.75 509.141 411.569 510.848C407.473 512.469 402.908 513.28 397.873 513.28ZM400.945 495.104C402.14 495.104 403.292 494.549 404.401 493.44C405.596 492.331 406.662 490.837 407.601 488.96C408.54 486.997 409.35 484.779 410.033 482.304C410.716 479.829 411.228 477.227 411.569 474.496C411.996 471.68 412.209 468.907 412.209 466.176C412.209 464.384 411.996 462.891 411.569 461.696C411.228 460.501 410.758 459.605 410.161 459.008C409.564 458.411 408.838 458.112 407.985 458.112C406.79 458.112 405.638 458.667 404.529 459.776C403.505 460.885 402.524 462.421 401.585 464.384C400.646 466.261 399.836 468.437 399.153 470.912C398.47 473.387 397.916 476.032 397.489 478.848C397.148 481.579 396.977 484.309 396.977 487.04C396.977 489.685 397.318 491.691 398.001 493.056C398.684 494.421 399.665 495.104 400.945 495.104ZM449.077 512L469.685 414.72H493.877L473.269 512H449.077ZM525.548 513.28C520.001 513.28 515.308 512.256 511.468 510.208C507.628 508.075 504.727 505.003 502.764 500.992C500.801 496.981 499.82 492.117 499.82 486.4C499.82 481.536 500.332 476.843 501.356 472.32C502.465 467.797 504.087 463.573 506.22 459.648C508.353 455.723 510.956 452.309 514.028 449.408C517.185 446.421 520.812 444.117 524.908 442.496C529.089 440.789 533.74 439.936 538.86 439.936C544.407 439.936 549.1 441.003 552.94 443.136C556.78 445.184 559.681 448.213 561.644 452.224C563.692 456.235 564.716 461.099 564.716 466.816C564.716 471.68 564.161 476.416 563.052 481.024C561.943 485.547 560.321 489.771 558.188 493.696C556.055 497.621 553.409 501.035 550.252 503.936C547.095 506.837 543.425 509.141 539.244 510.848C535.148 512.469 530.583 513.28 525.548 513.28ZM528.62 495.104C529.815 495.104 530.967 494.549 532.076 493.44C533.271 492.331 534.337 490.837 535.276 488.96C536.215 486.997 537.025 484.779 537.708 482.304C538.391 479.829 538.903 477.227 539.244 474.496C539.671 471.68 539.884 468.907 539.884 466.176C539.884 464.384 539.671 462.891 539.244 461.696C538.903 460.501 538.433 459.605 537.836 459.008C537.239 458.411 536.513 458.112 535.66 458.112C534.465 458.112 533.313 458.667 532.204 459.776C531.18 460.885 530.199 462.421 529.26 464.384C528.321 466.261 527.511 468.437 526.828 470.912C526.145 473.387 525.591 476.032 525.164 478.848C524.823 481.579 524.652 484.309 524.652 487.04C524.652 489.685 524.993 491.691 525.676 493.056C526.359 494.421 527.34 495.104 528.62 495.104ZM598.512 542.72C593.563 542.72 589.424 542.336 586.096 541.568C582.768 540.8 579.696 539.861 576.88 538.752L577.136 518.912C579.184 520.021 581.317 520.96 583.536 521.728C585.755 522.581 588.101 523.221 590.576 523.648C593.051 524.075 595.568 524.288 598.128 524.288C601.797 524.288 604.656 523.349 606.704 521.472C608.752 519.595 610.117 517.205 610.8 514.304L611.44 511.488C611.611 510.805 611.739 510.123 611.824 509.44C611.909 508.672 611.995 507.947 612.08 507.264C612.251 506.496 612.464 505.771 612.72 505.088H612.336C611.397 506.453 610.288 507.733 609.008 508.928C607.813 510.037 606.32 510.933 604.528 511.616C602.821 512.299 600.731 512.64 598.256 512.64C594.928 512.64 591.941 511.829 589.296 510.208C586.651 508.587 584.56 505.899 583.024 502.144C581.488 498.389 580.72 493.397 580.72 487.168C580.72 483.669 581.061 479.829 581.744 475.648C582.512 471.381 583.664 467.157 585.2 462.976C586.736 458.795 588.699 454.955 591.088 451.456C593.477 447.957 596.293 445.184 599.536 443.136C602.864 441.003 606.661 439.936 610.928 439.936C613.403 439.936 615.493 440.277 617.2 440.96C618.992 441.643 620.571 442.709 621.936 444.16C623.301 445.611 624.709 447.531 626.16 449.92H626.672L629.872 441.216H649.328L633.968 513.664C632.432 520.917 629.915 526.677 626.416 530.944C622.917 535.211 618.736 538.24 613.872 540.032C609.093 541.824 603.973 542.72 598.512 542.72ZM609.776 493.824C610.885 493.824 611.909 493.44 612.848 492.672C613.787 491.904 614.64 490.837 615.408 489.472C616.261 488.107 616.987 486.571 617.584 484.864C618.267 483.072 618.821 481.237 619.248 479.36C619.675 477.397 620.016 475.435 620.272 473.472C620.528 471.509 620.656 469.675 620.656 467.968C620.656 465.408 620.357 463.36 619.76 461.824C619.248 460.203 618.267 459.392 616.816 459.392C615.707 459.392 614.597 459.904 613.488 460.928C612.379 461.867 611.312 463.189 610.288 464.896C609.349 466.603 608.539 468.565 607.856 470.784C607.173 473.003 606.619 475.349 606.192 477.824C605.765 480.213 605.552 482.645 605.552 485.12C605.552 487.936 605.893 490.112 606.576 491.648C607.259 493.099 608.325 493.824 609.776 493.824ZM657.533 542.72C655.144 542.72 653.224 542.592 651.773 542.336C650.322 542.165 649.17 541.952 648.317 541.696L648.573 522.496C649.256 522.667 650.152 522.837 651.261 523.008C652.285 523.179 653.48 523.264 654.845 523.264C658.344 523.264 661.117 522.453 663.165 520.832C665.298 519.296 667.218 516.949 668.925 513.792L670.333 511.232L661.501 441.216H685.821L687.613 473.728C687.698 475.179 687.741 476.587 687.741 477.952C687.741 479.317 687.698 480.64 687.613 481.92C687.613 483.115 687.57 484.352 687.485 485.632H687.997C688.338 484.352 688.722 482.987 689.149 481.536C689.661 480 690.13 478.507 690.557 477.056C691.069 475.605 691.496 474.411 691.837 473.472L704.637 441.216H730.621L690.173 520.96C687.698 525.824 684.968 529.877 681.981 533.12C678.994 536.363 675.496 538.752 671.485 540.288C667.56 541.909 662.909 542.72 657.533 542.72Z" fill="#104A6B" fill-opacity="0.1" style="mix-blend-mode:multiply"/>
</svg>
