<svg width="770" height="543" viewBox="0 0 770 543" fill="none" xmlns="http://www.w3.org/2000/svg">
<path d="M172.139 92L191.467 0.607994H243.819L239.467 20.448H211.691L209.003 34.784H234.859L230.251 54.624H204.267L201.067 71.904H228.843L224.363 92H172.139ZM247.027 92L262.003 21.216H281.587L280.435 32.864H280.947C282.568 29.7067 284.275 27.1893 286.067 25.312C287.859 23.4347 289.907 22.0693 292.211 21.216C294.515 20.3627 297.203 19.936 300.275 19.936C304.883 19.936 308.424 21.0453 310.899 23.264C313.374 25.4827 315.166 28.6827 316.275 32.864H316.787C318.579 29.8773 320.456 27.4453 322.419 25.568C324.467 23.6907 326.686 22.2827 329.075 21.344C331.55 20.4053 334.238 19.936 337.139 19.936C342.6 19.936 346.782 21.6853 349.683 25.184C352.584 28.5973 354.035 33.6747 354.035 40.416C354.035 42.3787 353.864 44.512 353.523 46.816C353.267 49.12 352.926 51.3813 352.499 53.6L344.819 92H320.627L328.563 52.576C328.734 51.7227 328.947 50.5707 329.203 49.12C329.459 47.584 329.587 45.92 329.587 44.128C329.587 42.5067 329.246 41.2693 328.563 40.416C327.88 39.5627 326.984 39.136 325.875 39.136C324.595 39.136 323.4 39.5627 322.291 40.416C321.267 41.184 320.328 42.3787 319.475 44C318.622 45.536 317.854 47.4987 317.171 49.888C316.488 52.192 315.806 54.9227 315.123 58.08L308.083 92H283.891L291.955 52.576C292.126 51.6373 292.339 50.4 292.595 48.864C292.851 47.2427 292.979 45.92 292.979 44.896C292.979 42.848 292.595 41.3973 291.827 40.544C291.059 39.6053 290.163 39.136 289.139 39.136C288.2 39.136 287.262 39.4347 286.323 40.032C285.47 40.544 284.616 41.4827 283.763 42.848C282.995 44.2133 282.184 46.0907 281.331 48.48C280.478 50.8693 279.667 53.8987 278.899 57.568L271.219 92H247.027ZM360.024 122.72L381.528 21.216H401.112L400.344 29.152H400.728C402.008 27.104 403.373 25.3973 404.824 24.032C406.275 22.6667 407.853 21.6427 409.56 20.96C411.352 20.2773 413.272 19.936 415.32 19.936C419.501 19.936 423.043 20.96 425.944 23.008C428.931 24.9707 431.192 27.872 432.728 31.712C434.349 35.4667 435.16 40.0747 435.16 45.536C435.16 50.2293 434.691 54.88 433.752 59.488C432.813 64.096 431.491 68.448 429.784 72.544C428.077 76.5547 425.944 80.1387 423.384 83.296C420.909 86.368 418.093 88.8 414.936 90.592C411.864 92.384 408.451 93.28 404.696 93.28C402.819 93.28 401.069 92.896 399.448 92.128C397.827 91.36 396.333 90.2933 394.968 88.928C393.603 87.5627 392.408 85.984 391.384 84.192H390.872C390.531 87.52 390.104 90.8053 389.592 94.048C389.165 97.376 388.355 101.813 387.16 107.36L384.088 122.72H360.024ZM399.832 73.824C401.027 73.824 402.136 73.3547 403.16 72.416C404.269 71.392 405.251 70.0267 406.104 68.32C406.957 66.6133 407.725 64.6507 408.408 62.432C409.091 60.2133 409.603 57.8667 409.944 55.392C410.285 52.9173 410.456 50.4853 410.456 48.096C410.456 45.28 410.072 43.1467 409.304 41.696C408.536 40.16 407.427 39.392 405.976 39.392C404.952 39.392 403.971 39.776 403.032 40.544C402.179 41.312 401.368 42.3787 400.6 43.744C399.832 45.024 399.107 46.5173 398.424 48.224C397.827 49.9307 397.315 51.7653 396.888 53.728C396.461 55.6053 396.12 57.5253 395.864 59.488C395.608 61.4507 395.48 63.328 395.48 65.12C395.48 67.7653 395.864 69.8987 396.632 71.52C397.4 73.056 398.467 73.824 399.832 73.824ZM476.773 93.28C471.226 93.28 466.533 92.256 462.693 90.208C458.853 88.0747 455.952 85.0027 453.989 80.992C452.026 76.9813 451.045 72.1173 451.045 66.4C451.045 61.536 451.557 56.8427 452.581 52.32C453.69 47.7973 455.312 43.5733 457.445 39.648C459.578 35.7227 462.181 32.3093 465.253 29.408C468.41 26.4213 472.037 24.1173 476.133 22.496C480.314 20.7893 484.965 19.936 490.085 19.936C495.632 19.936 500.325 21.0027 504.165 23.136C508.005 25.184 510.906 28.2133 512.869 32.224C514.917 36.2347 515.941 41.0987 515.941 46.816C515.941 51.68 515.386 56.416 514.277 61.024C513.168 65.5467 511.546 69.7707 509.413 73.696C507.28 77.6213 504.634 81.0347 501.477 83.936C498.32 86.8373 494.65 89.1413 490.469 90.848C486.373 92.4693 481.808 93.28 476.773 93.28ZM479.845 75.104C481.04 75.104 482.192 74.5493 483.301 73.44C484.496 72.3307 485.562 70.8373 486.501 68.96C487.44 66.9973 488.25 64.7787 488.933 62.304C489.616 59.8293 490.128 57.2267 490.469 54.496C490.896 51.68 491.109 48.9067 491.109 46.176C491.109 44.384 490.896 42.8907 490.469 41.696C490.128 40.5013 489.658 39.6053 489.061 39.008C488.464 38.4107 487.738 38.112 486.885 38.112C485.69 38.112 484.538 38.6667 483.429 39.776C482.405 40.8853 481.424 42.4213 480.485 44.384C479.546 46.2613 478.736 48.4373 478.053 50.912C477.37 53.3867 476.816 56.032 476.389 58.848C476.048 61.5787 475.877 64.3093 475.877 67.04C475.877 69.6853 476.218 71.6907 476.901 73.056C477.584 74.4213 478.565 75.104 479.845 75.104ZM534.306 92L530.978 21.216H553.762L553.378 55.776C553.378 58.08 553.25 60.4267 552.994 62.816C552.823 65.2053 552.653 67.3813 552.482 69.344H552.994C553.25 67.9787 553.506 66.6133 553.762 65.248C554.103 63.7973 554.445 62.432 554.786 61.152C555.127 59.7867 555.511 58.5067 555.938 57.312L568.994 21.216H594.338L591.906 56.032C591.821 57.312 591.693 59.1467 591.522 61.536C591.437 63.9253 591.223 66.528 590.882 69.344H591.266C591.778 67.6373 592.205 66.0587 592.546 64.608C592.973 63.072 593.399 61.5787 593.826 60.128C594.253 58.6773 594.765 57.184 595.362 55.648L609.186 21.216H633.25L600.482 92H574.114L575.522 63.968C575.693 61.7493 575.863 59.2747 576.034 56.544C576.205 53.8133 576.418 51.0827 576.674 48.352C576.93 45.536 577.186 43.0187 577.442 40.8H576.93C576.418 43.104 575.735 45.5787 574.882 48.224C574.114 50.784 573.303 53.2587 572.45 55.648C571.682 57.952 570.999 59.9573 570.402 61.664L559.65 92H534.306ZM663.463 93.28C657.746 93.28 652.924 92.1707 648.999 89.952C645.074 87.7333 642.087 84.576 640.039 80.48C638.076 76.2987 637.095 71.3493 637.095 65.632C637.095 59.8293 637.863 54.1973 639.399 48.736C641.02 43.2747 643.452 38.4107 646.695 34.144C649.938 29.792 654.034 26.336 658.983 23.776C663.932 21.216 669.778 19.936 676.519 19.936C684.028 19.936 689.959 21.728 694.311 25.312C698.748 28.8107 700.967 33.504 700.967 39.392C700.967 43.3173 700.242 46.9013 698.791 50.144C697.426 53.3867 695.292 56.16 692.391 58.464C689.49 60.768 685.778 62.56 681.255 63.84C676.732 65.0347 671.314 65.632 664.999 65.632H661.415C661.415 65.8027 661.415 65.9733 661.415 66.144C661.415 66.3147 661.415 66.4853 661.415 66.656C661.415 69.8133 662.14 72.16 663.591 73.696C665.127 75.1467 667.431 75.872 670.503 75.872C673.916 75.872 677.159 75.3173 680.231 74.208C683.388 73.0987 686.674 71.6053 690.087 69.728L689.831 86.88C686.162 88.7573 682.364 90.2933 678.439 91.488C674.599 92.6827 669.607 93.28 663.463 93.28ZM665.383 50.528C668.626 50.528 671.143 50.0587 672.935 49.12C674.812 48.096 676.135 46.8587 676.903 45.408C677.671 43.872 678.055 42.3787 678.055 40.928C678.055 39.648 677.671 38.5813 676.903 37.728C676.22 36.7893 675.068 36.32 673.447 36.32C671.74 36.32 670.204 37.0453 668.839 38.496C667.474 39.9467 666.364 41.7813 665.511 44C664.743 46.1333 664.231 48.3093 663.975 50.528H665.383ZM710.527 92L725.503 21.216H745.087L743.807 32.992H744.319C746.282 29.664 748.202 27.0613 750.079 25.184C752.042 23.2213 754.175 21.856 756.479 21.088C758.783 20.32 761.471 19.936 764.543 19.936C765.396 19.936 766.25 19.9787 767.103 20.064C768.042 20.1493 768.682 20.2773 769.023 20.448L763.519 44.384C762.666 43.9573 761.556 43.616 760.191 43.36C758.826 43.104 757.418 42.976 755.967 42.976C754.26 42.976 752.682 43.2747 751.231 43.872C749.78 44.4693 748.458 45.4507 747.263 46.816C746.068 48.1813 744.959 50.016 743.935 52.32C742.996 54.624 742.143 57.4827 741.375 60.896L734.719 92H710.527ZM92.339 232L111.667 140.608H136.115L129.203 174.528H148.147L155.059 140.608H179.507L160.179 232H135.731L143.411 194.752H124.595L116.787 232H92.339ZM208.389 233.28C204.976 233.28 201.818 232.469 198.917 230.848C196.016 229.141 193.712 226.368 192.005 222.528C190.298 218.603 189.445 213.397 189.445 206.912C189.445 203.413 189.829 199.573 190.597 195.392C191.365 191.211 192.517 187.029 194.053 182.848C195.589 178.667 197.552 174.869 199.941 171.456C202.33 167.957 205.146 165.184 208.389 163.136C211.717 161.003 215.472 159.936 219.653 159.936C222.128 159.936 224.304 160.363 226.181 161.216C228.058 161.984 229.68 163.136 231.045 164.672C232.496 166.123 233.776 167.872 234.885 169.92H235.397L238.597 161.216H258.053L243.077 232H223.493L224.133 224.32H223.621C222.512 226.027 221.274 227.563 219.909 228.928C218.544 230.293 216.922 231.36 215.045 232.128C213.168 232.896 210.949 233.28 208.389 233.28ZM218.629 213.824C220.25 213.824 221.701 213.013 222.981 211.392C224.261 209.685 225.37 207.509 226.309 204.864C227.333 202.133 228.101 199.232 228.613 196.16C228.869 194.709 229.04 193.344 229.125 192.064C229.21 190.699 229.253 189.376 229.253 188.096C229.253 185.451 228.954 183.36 228.357 181.824C227.76 180.203 226.736 179.392 225.285 179.392C224.176 179.392 223.066 179.904 221.957 180.928C220.848 181.867 219.824 183.189 218.885 184.896C217.946 186.603 217.093 188.565 216.325 190.784C215.642 193.003 215.088 195.349 214.661 197.824C214.32 200.213 214.149 202.645 214.149 205.12C214.149 207.936 214.533 210.112 215.301 211.648C216.069 213.099 217.178 213.824 218.629 213.824ZM259.474 262.72L280.978 161.216H300.562L299.794 169.152H300.178C301.458 167.104 302.823 165.397 304.274 164.032C305.725 162.667 307.303 161.643 309.01 160.96C310.802 160.277 312.722 159.936 314.77 159.936C318.951 159.936 322.493 160.96 325.394 163.008C328.381 164.971 330.642 167.872 332.178 171.712C333.799 175.467 334.61 180.075 334.61 185.536C334.61 190.229 334.141 194.88 333.202 199.488C332.263 204.096 330.941 208.448 329.234 212.544C327.527 216.555 325.394 220.139 322.834 223.296C320.359 226.368 317.543 228.8 314.386 230.592C311.314 232.384 307.901 233.28 304.146 233.28C302.269 233.28 300.519 232.896 298.898 232.128C297.277 231.36 295.783 230.293 294.418 228.928C293.053 227.563 291.858 225.984 290.834 224.192H290.322C289.981 227.52 289.554 230.805 289.042 234.048C288.615 237.376 287.805 241.813 286.61 247.36L283.538 262.72H259.474ZM299.282 213.824C300.477 213.824 301.586 213.355 302.61 212.416C303.719 211.392 304.701 210.027 305.554 208.32C306.407 206.613 307.175 204.651 307.858 202.432C308.541 200.213 309.053 197.867 309.394 195.392C309.735 192.917 309.906 190.485 309.906 188.096C309.906 185.28 309.522 183.147 308.754 181.696C307.986 180.16 306.877 179.392 305.426 179.392C304.402 179.392 303.421 179.776 302.482 180.544C301.629 181.312 300.818 182.379 300.05 183.744C299.282 185.024 298.557 186.517 297.874 188.224C297.277 189.931 296.765 191.765 296.338 193.728C295.911 195.605 295.57 197.525 295.314 199.488C295.058 201.451 294.93 203.328 294.93 205.12C294.93 207.765 295.314 209.899 296.082 211.52C296.85 213.056 297.917 213.824 299.282 213.824ZM339.999 262.72L361.503 161.216H381.087L380.319 169.152H380.703C381.983 167.104 383.348 165.397 384.799 164.032C386.25 162.667 387.828 161.643 389.535 160.96C391.327 160.277 393.247 159.936 395.295 159.936C399.476 159.936 403.018 160.96 405.919 163.008C408.906 164.971 411.167 167.872 412.703 171.712C414.324 175.467 415.135 180.075 415.135 185.536C415.135 190.229 414.666 194.88 413.727 199.488C412.788 204.096 411.466 208.448 409.759 212.544C408.052 216.555 405.919 220.139 403.359 223.296C400.884 226.368 398.068 228.8 394.911 230.592C391.839 232.384 388.426 233.28 384.671 233.28C382.794 233.28 381.044 232.896 379.423 232.128C377.802 231.36 376.308 230.293 374.943 228.928C373.578 227.563 372.383 225.984 371.359 224.192H370.847C370.506 227.52 370.079 230.805 369.567 234.048C369.14 237.376 368.33 241.813 367.135 247.36L364.063 262.72H339.999ZM379.807 213.824C381.002 213.824 382.111 213.355 383.135 212.416C384.244 211.392 385.226 210.027 386.079 208.32C386.932 206.613 387.7 204.651 388.383 202.432C389.066 200.213 389.578 197.867 389.919 195.392C390.26 192.917 390.431 190.485 390.431 188.096C390.431 185.28 390.047 183.147 389.279 181.696C388.511 180.16 387.402 179.392 385.951 179.392C384.927 179.392 383.946 179.776 383.007 180.544C382.154 181.312 381.343 182.379 380.575 183.744C379.807 185.024 379.082 186.517 378.399 188.224C377.802 189.931 377.29 191.765 376.863 193.728C376.436 195.605 376.095 197.525 375.839 199.488C375.583 201.451 375.455 203.328 375.455 205.12C375.455 207.765 375.839 209.899 376.607 211.52C377.375 213.056 378.442 213.824 379.807 213.824ZM427.052 232L442.028 161.216H466.476L451.244 232H427.052ZM456.748 154.432C453.42 154.432 450.604 153.792 448.3 152.512C446.081 151.147 444.972 148.885 444.972 145.728C444.972 142.827 445.527 140.437 446.636 138.56C447.831 136.597 449.495 135.104 451.628 134.08C453.761 133.056 456.279 132.544 459.18 132.544C462.337 132.544 465.068 133.184 467.372 134.464C469.761 135.744 470.956 138.005 470.956 141.248C470.956 145.173 469.804 148.373 467.5 150.848C465.196 153.237 461.612 154.432 456.748 154.432ZM473.827 232L488.803 161.216H508.387L507.619 171.072H508.131C509.582 168.427 511.16 166.293 512.867 164.672C514.574 163.051 516.494 161.856 518.627 161.088C520.846 160.32 523.363 159.936 526.179 159.936C530.36 159.936 533.731 160.875 536.291 162.752C538.936 164.544 540.856 166.933 542.051 169.92C543.246 172.907 543.843 176.192 543.843 179.776C543.843 182.165 543.672 184.64 543.331 187.2C543.075 189.675 542.691 192.064 542.179 194.368L534.371 232H510.179L518.115 193.344C518.371 192.235 518.627 190.827 518.883 189.12C519.139 187.413 519.267 185.835 519.267 184.384C519.267 182.677 518.84 181.397 517.987 180.544C517.134 179.605 516.238 179.136 515.299 179.136C514.104 179.136 512.91 179.819 511.715 181.184C510.606 182.464 509.496 184.469 508.387 187.2C507.363 189.845 506.382 193.259 505.443 197.44L498.019 232H473.827ZM586.688 233.28C580.971 233.28 576.149 232.171 572.224 229.952C568.299 227.733 565.312 224.576 563.264 220.48C561.301 216.299 560.32 211.349 560.32 205.632C560.32 199.829 561.088 194.197 562.624 188.736C564.245 183.275 566.677 178.411 569.92 174.144C573.163 169.792 577.259 166.336 582.208 163.776C587.157 161.216 593.003 159.936 599.744 159.936C607.253 159.936 613.184 161.728 617.536 165.312C621.973 168.811 624.192 173.504 624.192 179.392C624.192 183.317 623.467 186.901 622.016 190.144C620.651 193.387 618.517 196.16 615.616 198.464C612.715 200.768 609.003 202.56 604.48 203.84C599.957 205.035 594.539 205.632 588.224 205.632H584.64C584.64 205.803 584.64 205.973 584.64 206.144C584.64 206.315 584.64 206.485 584.64 206.656C584.64 209.813 585.365 212.16 586.816 213.696C588.352 215.147 590.656 215.872 593.728 215.872C597.141 215.872 600.384 215.317 603.456 214.208C606.613 213.099 609.899 211.605 613.312 209.728L613.056 226.88C609.387 228.757 605.589 230.293 601.664 231.488C597.824 232.683 592.832 233.28 586.688 233.28ZM588.608 190.528C591.851 190.528 594.368 190.059 596.16 189.12C598.037 188.096 599.36 186.859 600.128 185.408C600.896 183.872 601.28 182.379 601.28 180.928C601.28 179.648 600.896 178.581 600.128 177.728C599.445 176.789 598.293 176.32 596.672 176.32C594.965 176.32 593.429 177.045 592.064 178.496C590.699 179.947 589.589 181.781 588.736 184C587.968 186.133 587.456 188.309 587.2 190.528H588.608ZM655.896 233.28C651.373 233.28 647.32 232.939 643.736 232.256C640.152 231.573 637.08 230.592 634.52 229.312L634.776 209.856C638.531 211.989 641.944 213.483 645.016 214.336C648.173 215.104 651.331 215.488 654.488 215.488C655.256 215.488 656.195 215.403 657.304 215.232C658.499 214.976 659.565 214.549 660.504 213.952C661.443 213.269 661.912 212.288 661.912 211.008C661.912 210.069 661.699 209.216 661.272 208.448C660.931 207.68 660.12 206.827 658.84 205.888C657.645 204.864 655.725 203.584 653.08 202.048C650.349 200.427 648.088 198.677 646.296 196.8C644.589 194.923 643.309 192.832 642.456 190.528C641.688 188.139 641.304 185.493 641.304 182.592C641.304 178.069 642.285 174.144 644.248 170.816C646.296 167.403 649.411 164.757 653.592 162.88C657.773 160.917 663.149 159.936 669.72 159.936C674.243 159.936 678.339 160.491 682.008 161.6C685.763 162.709 689.347 164.373 692.76 166.592L685.08 182.336C682.861 180.8 680.301 179.435 677.4 178.24C674.499 177.045 671.939 176.448 669.72 176.448C668.44 176.448 667.501 176.789 666.904 177.472C666.307 178.155 666.008 179.221 666.008 180.672C666.008 181.44 666.264 182.165 666.776 182.848C667.288 183.531 668.099 184.256 669.208 185.024C670.317 185.707 671.768 186.517 673.56 187.456C676.632 188.992 679.107 190.741 680.984 192.704C682.947 194.667 684.355 196.843 685.208 199.232C686.147 201.621 686.616 204.267 686.616 207.168C686.616 213.056 685.336 217.92 682.776 221.76C680.301 225.6 676.76 228.501 672.152 230.464C667.544 232.341 662.125 233.28 655.896 233.28ZM724.296 233.28C719.773 233.28 715.72 232.939 712.136 232.256C708.552 231.573 705.48 230.592 702.92 229.312L703.176 209.856C706.931 211.989 710.344 213.483 713.416 214.336C716.573 215.104 719.731 215.488 722.888 215.488C723.656 215.488 724.595 215.403 725.704 215.232C726.899 214.976 727.965 214.549 728.904 213.952C729.843 213.269 730.312 212.288 730.312 211.008C730.312 210.069 730.099 209.216 729.672 208.448C729.331 207.68 728.52 206.827 727.24 205.888C726.045 204.864 724.125 203.584 721.48 202.048C718.749 200.427 716.488 198.677 714.696 196.8C712.989 194.923 711.709 192.832 710.856 190.528C710.088 188.139 709.704 185.493 709.704 182.592C709.704 178.069 710.685 174.144 712.648 170.816C714.696 167.403 717.811 164.757 721.992 162.88C726.173 160.917 731.549 159.936 738.12 159.936C742.643 159.936 746.739 160.491 750.408 161.6C754.163 162.709 757.747 164.373 761.16 166.592L753.48 182.336C751.261 180.8 748.701 179.435 745.8 178.24C742.899 177.045 740.339 176.448 738.12 176.448C736.84 176.448 735.901 176.789 735.304 177.472C734.707 178.155 734.408 179.221 734.408 180.672C734.408 181.44 734.664 182.165 735.176 182.848C735.688 183.531 736.499 184.256 737.608 185.024C738.717 185.707 740.168 186.517 741.96 187.456C745.032 188.992 747.507 190.741 749.384 192.704C751.347 194.667 752.755 196.843 753.608 199.232C754.547 201.621 755.016 204.267 755.016 207.168C755.016 213.056 753.736 217.92 751.176 221.76C748.701 225.6 745.16 228.501 740.552 230.464C735.944 232.341 730.525 233.28 724.296 233.28ZM263.542 373.28C257.654 373.28 253.217 372 250.23 369.44C247.243 366.795 245.75 362.485 245.75 356.512C245.75 354.72 245.963 352.715 246.39 350.496C246.817 348.277 247.201 346.272 247.542 344.48L252.406 319.392H243.19L245.878 307.488L259.19 301.984L267.51 287.008H283.766L280.694 301.216H297.974L293.75 319.392H276.598L271.734 343.328C271.478 344.523 271.222 345.76 270.966 347.04C270.71 348.235 270.582 349.216 270.582 349.984C270.582 351.349 270.881 352.331 271.478 352.928C272.161 353.525 272.971 353.824 273.91 353.824C275.361 353.824 277.067 353.568 279.03 353.056C281.078 352.459 283.083 351.733 285.046 350.88L284.918 369.056C282.273 370.336 279.201 371.36 275.702 372.128C272.289 372.896 268.235 373.28 263.542 373.28ZM303.902 372L324.51 274.72H348.702L345.502 290.336C345.161 291.872 344.777 293.451 344.35 295.072C344.009 296.608 343.625 298.187 343.198 299.808C342.771 301.344 342.259 302.837 341.662 304.288C341.065 305.653 340.51 306.891 339.998 308H340.51C341.875 306.123 343.369 304.587 344.99 303.392C346.611 302.197 348.361 301.344 350.238 300.832C352.115 300.235 354.121 299.936 356.254 299.936C360.435 299.936 363.806 300.875 366.366 302.752C369.011 304.544 370.931 306.933 372.126 309.92C373.321 312.907 373.918 316.192 373.918 319.776C373.918 322.165 373.747 324.64 373.406 327.2C373.15 329.675 372.766 332.064 372.254 334.368L364.446 372H340.254L348.19 333.344C348.446 332.235 348.702 330.827 348.958 329.12C349.214 327.413 349.342 325.835 349.342 324.384C349.342 322.677 348.915 321.397 348.062 320.544C347.209 319.605 346.313 319.136 345.374 319.136C344.179 319.136 342.985 319.776 341.79 321.056C340.681 322.251 339.571 324.213 338.462 326.944C337.438 329.589 336.457 333.088 335.518 337.44L328.094 372H303.902ZM386.427 372L401.403 301.216H420.987L419.707 312.992H420.219C422.182 309.664 424.102 307.061 425.979 305.184C427.942 303.221 430.075 301.856 432.379 301.088C434.683 300.32 437.371 299.936 440.443 299.936C441.296 299.936 442.15 299.979 443.003 300.064C443.942 300.149 444.582 300.277 444.923 300.448L439.419 324.384C438.566 323.957 437.456 323.616 436.091 323.36C434.726 323.104 433.318 322.976 431.867 322.976C430.16 322.976 428.582 323.275 427.131 323.872C425.68 324.469 424.358 325.451 423.163 326.816C421.968 328.181 420.859 330.016 419.835 332.32C418.896 334.624 418.043 337.483 417.275 340.896L410.619 372H386.427ZM473.773 373.28C468.226 373.28 463.533 372.256 459.693 370.208C455.853 368.075 452.952 365.003 450.989 360.992C449.026 356.981 448.045 352.117 448.045 346.4C448.045 341.536 448.557 336.843 449.581 332.32C450.69 327.797 452.312 323.573 454.445 319.648C456.578 315.723 459.181 312.309 462.253 309.408C465.41 306.421 469.037 304.117 473.133 302.496C477.314 300.789 481.965 299.936 487.085 299.936C492.632 299.936 497.325 301.003 501.165 303.136C505.005 305.184 507.906 308.213 509.869 312.224C511.917 316.235 512.941 321.099 512.941 326.816C512.941 331.68 512.386 336.416 511.277 341.024C510.168 345.547 508.546 349.771 506.413 353.696C504.28 357.621 501.634 361.035 498.477 363.936C495.32 366.837 491.65 369.141 487.469 370.848C483.373 372.469 478.808 373.28 473.773 373.28ZM476.845 355.104C478.04 355.104 479.192 354.549 480.301 353.44C481.496 352.331 482.562 350.837 483.501 348.96C484.44 346.997 485.25 344.779 485.933 342.304C486.616 339.829 487.128 337.227 487.469 334.496C487.896 331.68 488.109 328.907 488.109 326.176C488.109 324.384 487.896 322.891 487.469 321.696C487.128 320.501 486.658 319.605 486.061 319.008C485.464 318.411 484.738 318.112 483.885 318.112C482.69 318.112 481.538 318.667 480.429 319.776C479.405 320.885 478.424 322.421 477.485 324.384C476.546 326.261 475.736 328.437 475.053 330.912C474.37 333.387 473.816 336.032 473.389 338.848C473.048 341.579 472.877 344.309 472.877 347.04C472.877 349.685 473.218 351.691 473.901 353.056C474.584 354.421 475.565 355.104 476.845 355.104ZM547.377 373.28C543.196 373.28 539.782 372.384 537.137 370.592C534.492 368.715 532.572 366.283 531.377 363.296C530.182 360.309 529.585 357.024 529.585 353.44C529.585 351.051 529.713 348.619 529.969 346.144C530.31 343.584 530.694 341.152 531.121 338.848L539.057 301.216H563.249L555.313 339.744C555.142 340.853 554.886 342.261 554.545 343.968C554.289 345.675 554.161 347.253 554.161 348.704C554.161 350.411 554.588 351.733 555.441 352.672C556.294 353.525 557.19 353.952 558.129 353.952C559.153 353.952 560.22 353.312 561.329 352.032C562.524 350.752 563.676 348.747 564.785 346.016C565.98 343.285 567.004 339.829 567.857 335.648L575.281 301.216H599.601L584.625 372H565.169L565.809 362.144H565.425C563.974 364.789 562.353 366.923 560.561 368.544C558.854 370.165 556.934 371.36 554.801 372.128C552.668 372.896 550.193 373.28 547.377 373.28ZM629.262 402.72C624.313 402.72 620.174 402.336 616.846 401.568C613.518 400.8 610.446 399.861 607.63 398.752L607.886 378.912C609.934 380.021 612.067 380.96 614.286 381.728C616.505 382.581 618.851 383.221 621.326 383.648C623.801 384.075 626.318 384.288 628.878 384.288C632.547 384.288 635.406 383.349 637.454 381.472C639.502 379.595 640.867 377.205 641.55 374.304L642.19 371.488C642.361 370.805 642.489 370.123 642.574 369.44C642.659 368.672 642.745 367.947 642.83 367.264C643.001 366.496 643.214 365.771 643.47 365.088H643.086C642.147 366.453 641.038 367.733 639.758 368.928C638.563 370.037 637.07 370.933 635.278 371.616C633.571 372.299 631.481 372.64 629.006 372.64C625.678 372.64 622.691 371.829 620.046 370.208C617.401 368.587 615.31 365.899 613.774 362.144C612.238 358.389 611.47 353.397 611.47 347.168C611.47 343.669 611.811 339.829 612.494 335.648C613.262 331.381 614.414 327.157 615.95 322.976C617.486 318.795 619.449 314.955 621.838 311.456C624.227 307.957 627.043 305.184 630.286 303.136C633.614 301.003 637.411 299.936 641.678 299.936C644.153 299.936 646.243 300.277 647.95 300.96C649.742 301.643 651.321 302.709 652.686 304.16C654.051 305.611 655.459 307.531 656.91 309.92H657.422L660.622 301.216H680.078L664.718 373.664C663.182 380.917 660.665 386.677 657.166 390.944C653.667 395.211 649.486 398.24 644.622 400.032C639.843 401.824 634.723 402.72 629.262 402.72ZM640.526 353.824C641.635 353.824 642.659 353.44 643.598 352.672C644.537 351.904 645.39 350.837 646.158 349.472C647.011 348.107 647.737 346.571 648.334 344.864C649.017 343.072 649.571 341.237 649.998 339.36C650.425 337.397 650.766 335.435 651.022 333.472C651.278 331.509 651.406 329.675 651.406 327.968C651.406 325.408 651.107 323.36 650.51 321.824C649.998 320.203 649.017 319.392 647.566 319.392C646.457 319.392 645.347 319.904 644.238 320.928C643.129 321.867 642.062 323.189 641.038 324.896C640.099 326.603 639.289 328.565 638.606 330.784C637.923 333.003 637.369 335.349 636.942 337.824C636.515 340.213 636.302 342.645 636.302 345.12C636.302 347.936 636.643 350.112 637.326 351.648C638.009 353.099 639.075 353.824 640.526 353.824ZM688.027 372L708.635 274.72H732.827L729.627 290.336C729.286 291.872 728.902 293.451 728.475 295.072C728.134 296.608 727.75 298.187 727.323 299.808C726.896 301.344 726.384 302.837 725.787 304.288C725.19 305.653 724.635 306.891 724.123 308H724.635C726 306.123 727.494 304.587 729.115 303.392C730.736 302.197 732.486 301.344 734.363 300.832C736.24 300.235 738.246 299.936 740.379 299.936C744.56 299.936 747.931 300.875 750.491 302.752C753.136 304.544 755.056 306.933 756.251 309.92C757.446 312.907 758.043 316.192 758.043 319.776C758.043 322.165 757.872 324.64 757.531 327.2C757.275 329.675 756.891 332.064 756.379 334.368L748.571 372H724.379L732.315 333.344C732.571 332.235 732.827 330.827 733.083 329.12C733.339 327.413 733.467 325.835 733.467 324.384C733.467 322.677 733.04 321.397 732.187 320.544C731.334 319.605 730.438 319.136 729.499 319.136C728.304 319.136 727.11 319.776 725.915 321.056C724.806 322.251 723.696 324.213 722.587 326.944C721.563 329.589 720.582 333.088 719.643 337.44L712.219 372H688.027ZM4.693 512L19.285 440.832H0.981001L5.589 420.608H66.901L62.165 440.832H43.733L29.141 512H4.693ZM88.263 513.28C82.5457 513.28 77.7243 512.171 73.799 509.952C69.8737 507.733 66.887 504.576 64.839 500.48C62.8763 496.299 61.895 491.349 61.895 485.632C61.895 479.829 62.663 474.197 64.199 468.736C65.8203 463.275 68.2523 458.411 71.495 454.144C74.7377 449.792 78.8337 446.336 83.783 443.776C88.7323 441.216 94.5777 439.936 101.319 439.936C108.828 439.936 114.759 441.728 119.111 445.312C123.548 448.811 125.767 453.504 125.767 459.392C125.767 463.317 125.042 466.901 123.591 470.144C122.226 473.387 120.092 476.16 117.191 478.464C114.29 480.768 110.578 482.56 106.055 483.84C101.532 485.035 96.1137 485.632 89.799 485.632H86.215C86.215 485.803 86.215 485.973 86.215 486.144C86.215 486.315 86.215 486.485 86.215 486.656C86.215 489.813 86.9403 492.16 88.391 493.696C89.927 495.147 92.231 495.872 95.303 495.872C98.7163 495.872 101.959 495.317 105.031 494.208C108.188 493.099 111.474 491.605 114.887 489.728L114.631 506.88C110.962 508.757 107.164 510.293 103.239 511.488C99.399 512.683 94.407 513.28 88.263 513.28ZM90.183 470.528C93.4257 470.528 95.943 470.059 97.735 469.12C99.6123 468.096 100.935 466.859 101.703 465.408C102.471 463.872 102.855 462.379 102.855 460.928C102.855 459.648 102.471 458.581 101.703 457.728C101.02 456.789 99.8683 456.32 98.247 456.32C96.5403 456.32 95.0043 457.045 93.639 458.496C92.2737 459.947 91.1643 461.781 90.311 464C89.543 466.133 89.031 468.309 88.775 470.528H90.183ZM164.255 513.28C159.818 513.28 155.679 512.341 151.839 510.464C148.084 508.501 145.055 505.429 142.751 501.248C140.532 497.067 139.423 491.605 139.423 484.864C139.423 479.829 139.978 475.051 141.087 470.528C142.196 466.005 143.818 461.909 145.951 458.24C148.084 454.485 150.644 451.243 153.631 448.512C156.703 445.781 160.116 443.691 163.871 442.24C167.626 440.704 171.722 439.936 176.159 439.936C179.914 439.936 183.54 440.363 187.039 441.216C190.538 441.984 194.036 443.221 197.535 444.928L189.727 462.848C187.764 461.909 185.674 461.056 183.455 460.288C181.322 459.52 179.188 459.136 177.055 459.136C175.263 459.136 173.642 459.691 172.191 460.8C170.74 461.824 169.46 463.232 168.351 465.024C167.327 466.731 166.474 468.651 165.791 470.784C165.108 472.832 164.596 474.965 164.255 477.184C163.914 479.317 163.743 481.323 163.743 483.2C163.743 485.845 163.999 487.979 164.511 489.6C165.108 491.136 165.876 492.245 166.815 492.928C167.839 493.525 169.034 493.824 170.399 493.824C173.215 493.824 175.988 493.355 178.719 492.416C181.45 491.392 184.308 490.069 187.295 488.448L187.167 507.648C183.924 509.44 180.468 510.848 176.799 511.872C173.215 512.811 169.034 513.28 164.255 513.28ZM203.727 512L224.335 414.72H248.527L245.327 430.336C244.986 431.872 244.602 433.451 244.175 435.072C243.834 436.608 243.45 438.187 243.023 439.808C242.596 441.344 242.084 442.837 241.487 444.288C240.89 445.653 240.335 446.891 239.823 448H240.335C241.7 446.123 243.194 444.587 244.815 443.392C246.436 442.197 248.186 441.344 250.063 440.832C251.94 440.235 253.946 439.936 256.079 439.936C260.26 439.936 263.631 440.875 266.191 442.752C268.836 444.544 270.756 446.933 271.951 449.92C273.146 452.907 273.743 456.192 273.743 459.776C273.743 462.165 273.572 464.64 273.231 467.2C272.975 469.675 272.591 472.064 272.079 474.368L264.271 512H240.079L248.015 473.344C248.271 472.235 248.527 470.827 248.783 469.12C249.039 467.413 249.167 465.835 249.167 464.384C249.167 462.677 248.74 461.397 247.887 460.544C247.034 459.605 246.138 459.136 245.199 459.136C244.004 459.136 242.81 459.776 241.615 461.056C240.506 462.251 239.396 464.213 238.287 466.944C237.263 469.589 236.282 473.088 235.343 477.44L227.919 512H203.727ZM286.252 512L301.228 441.216H320.812L320.044 451.072H320.556C322.007 448.427 323.585 446.293 325.292 444.672C326.999 443.051 328.919 441.856 331.052 441.088C333.271 440.32 335.788 439.936 338.604 439.936C342.785 439.936 346.156 440.875 348.716 442.752C351.361 444.544 353.281 446.933 354.476 449.92C355.671 452.907 356.268 456.192 356.268 459.776C356.268 462.165 356.097 464.64 355.756 467.2C355.5 469.675 355.116 472.064 354.604 474.368L346.796 512H322.604L330.54 473.344C330.796 472.235 331.052 470.827 331.308 469.12C331.564 467.413 331.692 465.835 331.692 464.384C331.692 462.677 331.265 461.397 330.412 460.544C329.559 459.605 328.663 459.136 327.724 459.136C326.529 459.136 325.335 459.819 324.14 461.184C323.031 462.464 321.921 464.469 320.812 467.2C319.788 469.845 318.807 473.259 317.868 477.44L310.444 512H286.252ZM398.473 513.28C392.926 513.28 388.233 512.256 384.393 510.208C380.553 508.075 377.652 505.003 375.689 500.992C373.726 496.981 372.745 492.117 372.745 486.4C372.745 481.536 373.257 476.843 374.281 472.32C375.39 467.797 377.012 463.573 379.145 459.648C381.278 455.723 383.881 452.309 386.953 449.408C390.11 446.421 393.737 444.117 397.833 442.496C402.014 440.789 406.665 439.936 411.785 439.936C417.332 439.936 422.025 441.003 425.865 443.136C429.705 445.184 432.606 448.213 434.569 452.224C436.617 456.235 437.641 461.099 437.641 466.816C437.641 471.68 437.086 476.416 435.977 481.024C434.868 485.547 433.246 489.771 431.113 493.696C428.98 497.621 426.334 501.035 423.177 503.936C420.02 506.837 416.35 509.141 412.169 510.848C408.073 512.469 403.508 513.28 398.473 513.28ZM401.545 495.104C402.74 495.104 403.892 494.549 405.001 493.44C406.196 492.331 407.262 490.837 408.201 488.96C409.14 486.997 409.95 484.779 410.633 482.304C411.316 479.829 411.828 477.227 412.169 474.496C412.596 471.68 412.809 468.907 412.809 466.176C412.809 464.384 412.596 462.891 412.169 461.696C411.828 460.501 411.358 459.605 410.761 459.008C410.164 458.411 409.438 458.112 408.585 458.112C407.39 458.112 406.238 458.667 405.129 459.776C404.105 460.885 403.124 462.421 402.185 464.384C401.246 466.261 400.436 468.437 399.753 470.912C399.07 473.387 398.516 476.032 398.089 478.848C397.748 481.579 397.577 484.309 397.577 487.04C397.577 489.685 397.918 491.691 398.601 493.056C399.284 494.421 400.265 495.104 401.545 495.104ZM449.677 512L470.285 414.72H494.477L473.869 512H449.677ZM526.148 513.28C520.601 513.28 515.908 512.256 512.068 510.208C508.228 508.075 505.327 505.003 503.364 500.992C501.401 496.981 500.42 492.117 500.42 486.4C500.42 481.536 500.932 476.843 501.956 472.32C503.065 467.797 504.687 463.573 506.82 459.648C508.953 455.723 511.556 452.309 514.628 449.408C517.785 446.421 521.412 444.117 525.508 442.496C529.689 440.789 534.34 439.936 539.46 439.936C545.007 439.936 549.7 441.003 553.54 443.136C557.38 445.184 560.281 448.213 562.244 452.224C564.292 456.235 565.316 461.099 565.316 466.816C565.316 471.68 564.761 476.416 563.652 481.024C562.543 485.547 560.921 489.771 558.788 493.696C556.655 497.621 554.009 501.035 550.852 503.936C547.695 506.837 544.025 509.141 539.844 510.848C535.748 512.469 531.183 513.28 526.148 513.28ZM529.22 495.104C530.415 495.104 531.567 494.549 532.676 493.44C533.871 492.331 534.937 490.837 535.876 488.96C536.815 486.997 537.625 484.779 538.308 482.304C538.991 479.829 539.503 477.227 539.844 474.496C540.271 471.68 540.484 468.907 540.484 466.176C540.484 464.384 540.271 462.891 539.844 461.696C539.503 460.501 539.033 459.605 538.436 459.008C537.839 458.411 537.113 458.112 536.26 458.112C535.065 458.112 533.913 458.667 532.804 459.776C531.78 460.885 530.799 462.421 529.86 464.384C528.921 466.261 528.111 468.437 527.428 470.912C526.745 473.387 526.191 476.032 525.764 478.848C525.423 481.579 525.252 484.309 525.252 487.04C525.252 489.685 525.593 491.691 526.276 493.056C526.959 494.421 527.94 495.104 529.22 495.104ZM599.112 542.72C594.163 542.72 590.024 542.336 586.696 541.568C583.368 540.8 580.296 539.861 577.48 538.752L577.736 518.912C579.784 520.021 581.917 520.96 584.136 521.728C586.355 522.581 588.701 523.221 591.176 523.648C593.651 524.075 596.168 524.288 598.728 524.288C602.397 524.288 605.256 523.349 607.304 521.472C609.352 519.595 610.717 517.205 611.4 514.304L612.04 511.488C612.211 510.805 612.339 510.123 612.424 509.44C612.509 508.672 612.595 507.947 612.68 507.264C612.851 506.496 613.064 505.771 613.32 505.088H612.936C611.997 506.453 610.888 507.733 609.608 508.928C608.413 510.037 606.92 510.933 605.128 511.616C603.421 512.299 601.331 512.64 598.856 512.64C595.528 512.64 592.541 511.829 589.896 510.208C587.251 508.587 585.16 505.899 583.624 502.144C582.088 498.389 581.32 493.397 581.32 487.168C581.32 483.669 581.661 479.829 582.344 475.648C583.112 471.381 584.264 467.157 585.8 462.976C587.336 458.795 589.299 454.955 591.688 451.456C594.077 447.957 596.893 445.184 600.136 443.136C603.464 441.003 607.261 439.936 611.528 439.936C614.003 439.936 616.093 440.277 617.8 440.96C619.592 441.643 621.171 442.709 622.536 444.16C623.901 445.611 625.309 447.531 626.76 449.92H627.272L630.472 441.216H649.928L634.568 513.664C633.032 520.917 630.515 526.677 627.016 530.944C623.517 535.211 619.336 538.24 614.472 540.032C609.693 541.824 604.573 542.72 599.112 542.72ZM610.376 493.824C611.485 493.824 612.509 493.44 613.448 492.672C614.387 491.904 615.24 490.837 616.008 489.472C616.861 488.107 617.587 486.571 618.184 484.864C618.867 483.072 619.421 481.237 619.848 479.36C620.275 477.397 620.616 475.435 620.872 473.472C621.128 471.509 621.256 469.675 621.256 467.968C621.256 465.408 620.957 463.36 620.36 461.824C619.848 460.203 618.867 459.392 617.416 459.392C616.307 459.392 615.197 459.904 614.088 460.928C612.979 461.867 611.912 463.189 610.888 464.896C609.949 466.603 609.139 468.565 608.456 470.784C607.773 473.003 607.219 475.349 606.792 477.824C606.365 480.213 606.152 482.645 606.152 485.12C606.152 487.936 606.493 490.112 607.176 491.648C607.859 493.099 608.925 493.824 610.376 493.824ZM658.133 542.72C655.744 542.72 653.824 542.592 652.373 542.336C650.922 542.165 649.77 541.952 648.917 541.696L649.173 522.496C649.856 522.667 650.752 522.837 651.861 523.008C652.885 523.179 654.08 523.264 655.445 523.264C658.944 523.264 661.717 522.453 663.765 520.832C665.898 519.296 667.818 516.949 669.525 513.792L670.933 511.232L662.101 441.216H686.421L688.213 473.728C688.298 475.179 688.341 476.587 688.341 477.952C688.341 479.317 688.298 480.64 688.213 481.92C688.213 483.115 688.17 484.352 688.085 485.632H688.597C688.938 484.352 689.322 482.987 689.749 481.536C690.261 480 690.73 478.507 691.157 477.056C691.669 475.605 692.096 474.411 692.437 473.472L705.237 441.216H731.221L690.773 520.96C688.298 525.824 685.568 529.877 682.581 533.12C679.594 536.363 676.096 538.752 672.085 540.288C668.16 541.909 663.509 542.72 658.133 542.72ZM735.365 513.536C732.378 513.536 729.861 512.768 727.813 511.232C725.85 509.696 724.869 507.349 724.869 504.192C724.869 500.779 725.594 498.005 727.045 495.872C728.581 493.653 730.501 492.032 732.805 491.008C735.109 489.984 737.541 489.472 740.101 489.472C743.344 489.472 745.989 490.283 748.037 491.904C750.085 493.44 751.109 495.829 751.109 499.072C751.109 502.741 750.426 505.643 749.061 507.776C747.781 509.909 745.946 511.403 743.557 512.256C741.253 513.109 738.522 513.536 735.365 513.536Z" fill="#104A6B" fill-opacity="0.1" style="mix-blend-mode:multiply"/>
</svg>
